<svg width="463" height="315" viewBox="0 0 463 315" fill="none" xmlns="http://www.w3.org/2000/svg">
<rect x="0.5" y="0.5" width="462" height="314" stroke="black"/>
<path d="M176 92L186.732 77.2727L194.091 92L232.42 38L267.376 92L280.254 77.2727L287 92" stroke="white" stroke-width="10"/>
<path d="M202.937 117.44V143H195.917V132.992H187.349V143H180.329V117.44H187.349V126.872H195.917V117.44H202.937ZM218.849 143.216C216.905 143.216 215.141 142.856 213.557 142.136C211.973 141.392 210.605 140.408 209.453 139.184C208.325 137.936 207.449 136.544 206.825 135.008C206.225 133.448 205.925 131.84 205.925 130.184C205.925 128.48 206.249 126.86 206.897 125.324C207.545 123.788 208.445 122.42 209.597 121.22C210.773 119.996 212.153 119.036 213.737 118.34C215.345 117.644 217.097 117.296 218.993 117.296C220.937 117.296 222.701 117.668 224.285 118.412C225.869 119.132 227.225 120.116 228.353 121.364C229.481 122.612 230.345 124.016 230.945 125.576C231.569 127.112 231.881 128.696 231.881 130.328C231.881 132.008 231.557 133.616 230.909 135.152C230.285 136.688 229.385 138.068 228.209 139.292C227.057 140.492 225.689 141.452 224.105 142.172C222.521 142.868 220.769 143.216 218.849 143.216ZM213.053 130.256C213.053 131.12 213.173 131.96 213.413 132.776C213.653 133.568 214.013 134.288 214.493 134.936C214.973 135.56 215.573 136.064 216.293 136.448C217.037 136.808 217.913 136.988 218.921 136.988C219.929 136.988 220.805 136.796 221.549 136.412C222.293 136.028 222.893 135.512 223.349 134.864C223.829 134.192 224.177 133.46 224.393 132.668C224.633 131.852 224.753 131.024 224.753 130.184C224.753 129.32 224.633 128.492 224.393 127.7C224.153 126.908 223.793 126.2 223.313 125.576C222.833 124.928 222.221 124.424 221.477 124.064C220.733 123.704 219.869 123.524 218.885 123.524C217.877 123.524 217.001 123.716 216.257 124.1C215.537 124.484 214.937 125 214.457 125.648C213.977 126.272 213.617 126.992 213.377 127.808C213.161 128.6 213.053 129.416 213.053 130.256ZM254.188 143V129.536L249.904 139.004H246.16L241.876 129.536V143H234.856V117.44H242.524L248.032 129.464L253.576 117.44H261.208V143H254.188ZM283.799 136.88V143H265.583V117.44H283.475V123.56H272.603V127.16H281.891V132.848H272.603V136.88H283.799ZM191.032 159.44H198.88L207.016 185H199.888L198.34 179.996H191.536L190.024 185H182.86L191.032 159.44ZM197.224 175.316L194.956 166.316L192.58 175.316H197.224ZM219.315 185.216C217.275 185.216 215.523 184.88 214.059 184.208C212.595 183.536 211.395 182.612 210.459 181.436C209.547 180.26 208.875 178.916 208.443 177.404C208.011 175.868 207.795 174.26 207.795 172.58V159.44H214.815V172.58C214.815 173.42 214.899 174.224 215.067 174.992C215.235 175.76 215.499 176.444 215.859 177.044C216.219 177.644 216.675 178.124 217.227 178.484C217.803 178.82 218.499 178.988 219.315 178.988C220.155 178.988 220.863 178.82 221.439 178.484C222.015 178.124 222.471 177.644 222.807 177.044C223.167 176.42 223.431 175.724 223.599 174.956C223.767 174.188 223.851 173.396 223.851 172.58V159.44H230.871V172.58C230.871 174.356 230.631 176.012 230.151 177.548C229.695 179.084 228.999 180.428 228.063 181.58C227.127 182.732 225.927 183.632 224.463 184.28C223.023 184.904 221.307 185.216 219.315 185.216ZM233.505 172.004C233.505 170.444 233.793 168.92 234.369 167.432C234.969 165.92 235.833 164.552 236.961 163.328C238.089 162.104 239.457 161.132 241.065 160.412C242.697 159.668 244.533 159.296 246.573 159.296C249.021 159.296 251.157 159.812 252.981 160.844C254.805 161.852 256.161 163.196 257.049 164.876L251.685 168.692C251.373 167.852 250.917 167.204 250.317 166.748C249.741 166.292 249.105 165.98 248.409 165.812C247.737 165.62 247.077 165.524 246.429 165.524C245.421 165.524 244.545 165.728 243.801 166.136C243.081 166.52 242.481 167.036 242.001 167.684C241.545 168.332 241.197 169.052 240.957 169.844C240.741 170.636 240.633 171.428 240.633 172.22C240.633 173.108 240.765 173.96 241.029 174.776C241.293 175.592 241.677 176.324 242.181 176.972C242.685 177.596 243.297 178.088 244.017 178.448C244.761 178.808 245.589 178.988 246.501 178.988C247.149 178.988 247.809 178.892 248.481 178.7C249.153 178.484 249.765 178.148 250.317 177.692C250.869 177.236 251.289 176.624 251.577 175.856L257.301 179.276C256.797 180.524 255.957 181.592 254.781 182.48C253.605 183.368 252.273 184.052 250.785 184.532C249.297 184.988 247.821 185.216 246.357 185.216C244.461 185.216 242.721 184.844 241.137 184.1C239.577 183.332 238.221 182.324 237.069 181.076C235.941 179.804 235.065 178.388 234.441 176.828C233.817 175.244 233.505 173.636 233.505 172.004ZM279.708 165.56H272.364V185H265.344V165.56H257.964V159.44H279.708V165.56ZM200.649 227V201.44H207.669V227H200.649ZM223.595 227.216C221.651 227.216 219.887 226.856 218.303 226.136C216.719 225.392 215.351 224.408 214.199 223.184C213.071 221.936 212.195 220.544 211.571 219.008C210.971 217.448 210.671 215.84 210.671 214.184C210.671 212.48 210.995 210.86 211.643 209.324C212.291 207.788 213.191 206.42 214.343 205.22C215.519 203.996 216.899 203.036 218.483 202.34C220.091 201.644 221.843 201.296 223.739 201.296C225.683 201.296 227.447 201.668 229.031 202.412C230.615 203.132 231.971 204.116 233.099 205.364C234.227 206.612 235.091 208.016 235.691 209.576C236.315 211.112 236.627 212.696 236.627 214.328C236.627 216.008 236.303 217.616 235.655 219.152C235.031 220.688 234.131 222.068 232.955 223.292C231.803 224.492 230.435 225.452 228.851 226.172C227.267 226.868 225.515 227.216 223.595 227.216ZM217.799 214.256C217.799 215.12 217.919 215.96 218.159 216.776C218.399 217.568 218.759 218.288 219.239 218.936C219.719 219.56 220.319 220.064 221.039 220.448C221.783 220.808 222.659 220.988 223.667 220.988C224.675 220.988 225.551 220.796 226.295 220.412C227.039 220.028 227.639 219.512 228.095 218.864C228.575 218.192 228.923 217.46 229.139 216.668C229.379 215.852 229.499 215.024 229.499 214.184C229.499 213.32 229.379 212.492 229.139 211.7C228.899 210.908 228.539 210.2 228.059 209.576C227.579 208.928 226.967 208.424 226.223 208.064C225.479 207.704 224.615 207.524 223.631 207.524C222.623 207.524 221.747 207.716 221.003 208.1C220.283 208.484 219.683 209 219.203 209.648C218.723 210.272 218.363 210.992 218.123 211.808C217.907 212.6 217.799 213.416 217.799 214.256ZM246.622 214.436V227H239.602V201.44H245.074L255.334 214.436V201.44H262.354V227H256.774L246.622 214.436Z" fill="white"/>
</svg>
