<svg width="203" height="342" viewBox="0 0 203 342" fill="none" xmlns="http://www.w3.org/2000/svg">
<g clip-path="url(#clip0_420_10)">
<path d="M52.221 137.06V182.5H39.741V164.708H24.509V182.5H12.029V137.06H24.509V153.828H39.741V137.06H52.221ZM80.509 182.884C77.053 182.884 73.917 182.244 71.101 180.964C68.285 179.641 65.853 177.892 63.805 175.716C61.7997 173.497 60.2423 171.023 59.133 168.292C58.0663 165.519 57.533 162.66 57.533 159.716C57.533 156.687 58.109 153.807 59.261 151.076C60.413 148.345 62.013 145.913 64.061 143.78C66.1517 141.604 68.605 139.897 71.421 138.66C74.2797 137.423 77.3943 136.804 80.765 136.804C84.221 136.804 87.357 137.465 90.173 138.788C92.989 140.068 95.3997 141.817 97.405 144.036C99.4103 146.255 100.946 148.751 102.013 151.524C103.122 154.255 103.677 157.071 103.677 159.972C103.677 162.959 103.101 165.817 101.949 168.548C100.84 171.279 99.2397 173.732 97.149 175.908C95.101 178.041 92.669 179.748 89.853 181.028C87.037 182.265 83.9223 182.884 80.509 182.884ZM70.205 159.844C70.205 161.38 70.4183 162.873 70.845 164.324C71.2717 165.732 71.9117 167.012 72.765 168.164C73.6183 169.273 74.685 170.169 75.965 170.852C77.2877 171.492 78.845 171.812 80.637 171.812C82.429 171.812 83.9863 171.471 85.309 170.788C86.6317 170.105 87.6983 169.188 88.509 168.036C89.3623 166.841 89.981 165.54 90.365 164.132C90.7917 162.681 91.005 161.209 91.005 159.716C91.005 158.18 90.7917 156.708 90.365 155.3C89.9383 153.892 89.2983 152.633 88.445 151.524C87.5917 150.372 86.5037 149.476 85.181 148.836C83.8583 148.196 82.3223 147.876 80.573 147.876C78.781 147.876 77.2237 148.217 75.901 148.9C74.621 149.583 73.5543 150.5 72.701 151.652C71.8477 152.761 71.2077 154.041 70.781 155.492C70.397 156.9 70.205 158.351 70.205 159.844ZM143.335 182.5V158.564L135.719 175.396H129.063L121.447 158.564V182.5H108.967V137.06H122.599L132.391 158.436L142.247 137.06H155.815V182.5H143.335ZM195.976 171.62V182.5H163.592V137.06H195.4V147.94H176.072V154.34H192.583V164.452H176.072V171.62H195.976ZM31.0563 212.06H45.0083L59.4723 257.5H46.8003L44.0483 248.604H31.9523L29.2643 257.5H16.5282L31.0563 212.06ZM42.0643 240.284L38.0323 224.284L33.8083 240.284H42.0643ZM81.3378 257.884C77.7111 257.884 74.5964 257.287 71.9938 256.092C69.3911 254.897 67.2578 253.255 65.5938 251.164C63.9724 249.073 62.7778 246.684 62.0098 243.996C61.2418 241.265 60.8578 238.407 60.8578 235.42V212.06H73.3378V235.42C73.3378 236.913 73.4871 238.343 73.7858 239.708C74.0844 241.073 74.5538 242.289 75.1938 243.356C75.8338 244.423 76.6444 245.276 77.6258 245.916C78.6498 246.513 79.8871 246.812 81.3378 246.812C82.8311 246.812 84.0898 246.513 85.1138 245.916C86.1378 245.276 86.9484 244.423 87.5458 243.356C88.1858 242.247 88.6551 241.009 88.9538 239.644C89.2524 238.279 89.4018 236.871 89.4018 235.42V212.06H101.882V235.42C101.882 238.577 101.455 241.521 100.602 244.252C99.7911 246.983 98.5538 249.372 96.8898 251.42C95.2258 253.468 93.0924 255.068 90.4897 256.22C87.9298 257.329 84.8791 257.884 81.3378 257.884ZM106.564 234.396C106.564 231.623 107.076 228.913 108.1 226.268C109.167 223.58 110.703 221.148 112.708 218.972C114.714 216.796 117.146 215.068 120.004 213.788C122.906 212.465 126.17 211.804 129.796 211.804C134.148 211.804 137.946 212.721 141.188 214.556C144.431 216.348 146.842 218.737 148.42 221.724L138.884 228.508C138.33 227.015 137.519 225.863 136.452 225.052C135.428 224.241 134.298 223.687 133.06 223.388C131.866 223.047 130.692 222.876 129.54 222.876C127.748 222.876 126.191 223.239 124.868 223.964C123.588 224.647 122.522 225.564 121.668 226.716C120.858 227.868 120.239 229.148 119.812 230.556C119.428 231.964 119.236 233.372 119.236 234.78C119.236 236.359 119.471 237.873 119.94 239.324C120.41 240.775 121.092 242.076 121.988 243.228C122.884 244.337 123.972 245.212 125.252 245.852C126.575 246.492 128.047 246.812 129.668 246.812C130.82 246.812 131.994 246.641 133.188 246.3C134.383 245.916 135.471 245.319 136.452 244.508C137.434 243.697 138.18 242.609 138.692 241.244L148.868 247.324C147.972 249.543 146.479 251.441 144.388 253.02C142.298 254.599 139.93 255.815 137.284 256.668C134.639 257.479 132.015 257.884 129.412 257.884C126.042 257.884 122.948 257.223 120.132 255.9C117.359 254.535 114.948 252.743 112.9 250.524C110.895 248.263 109.338 245.745 108.228 242.972C107.119 240.156 106.564 237.297 106.564 234.396ZM188.702 222.94H175.646V257.5H163.166V222.94H150.046V212.06H188.702V222.94ZM48.154 332.5V287.06H60.634V332.5H48.154ZM88.9465 332.884C85.4905 332.884 82.3545 332.244 79.5385 330.964C76.7225 329.641 74.2905 327.892 72.2425 325.716C70.2372 323.497 68.6798 321.023 67.5705 318.292C66.5038 315.519 65.9705 312.66 65.9705 309.716C65.9705 306.687 66.5465 303.807 67.6985 301.076C68.8505 298.345 70.4505 295.913 72.4985 293.78C74.5892 291.604 77.0425 289.897 79.8585 288.66C82.7172 287.423 85.8318 286.804 89.2025 286.804C92.6585 286.804 95.7945 287.465 98.6105 288.788C101.427 290.068 103.837 291.817 105.843 294.036C107.848 296.255 109.384 298.751 110.451 301.524C111.56 304.255 112.115 307.071 112.115 309.972C112.115 312.959 111.539 315.817 110.387 318.548C109.277 321.279 107.677 323.732 105.587 325.908C103.539 328.041 101.107 329.748 98.2905 331.028C95.4745 332.265 92.3598 332.884 88.9465 332.884ZM78.6425 309.844C78.6425 311.38 78.8558 312.873 79.2825 314.324C79.7092 315.732 80.3492 317.012 81.2025 318.164C82.0558 319.273 83.1225 320.169 84.4025 320.852C85.7252 321.492 87.2825 321.812 89.0745 321.812C90.8665 321.812 92.4238 321.471 93.7465 320.788C95.0692 320.105 96.1358 319.188 96.9465 318.036C97.7998 316.841 98.4185 315.54 98.8025 314.132C99.2292 312.681 99.4425 311.209 99.4425 309.716C99.4425 308.18 99.2292 306.708 98.8025 305.3C98.3758 303.892 97.7358 302.633 96.8825 301.524C96.0292 300.372 94.9412 299.476 93.6185 298.836C92.2958 298.196 90.7598 297.876 89.0105 297.876C87.2185 297.876 85.6612 298.217 84.3385 298.9C83.0585 299.583 81.9918 300.5 81.1385 301.652C80.2852 302.761 79.6452 304.041 79.2185 305.492C78.8345 306.9 78.6425 308.351 78.6425 309.844ZM129.884 310.164V332.5H117.404V287.06H127.132L145.372 310.164V287.06H157.852V332.5H147.932L129.884 310.164Z" fill="white"/>
<path d="M11 107L28.5 83L40.5 107L103 19L160 107L181 83L192 107" stroke="white" stroke-width="10"/>
</g>
<defs>
<clipPath id="clip0_420_10">
<rect width="203" height="342" fill="white"/>
</clipPath>
</defs>
</svg>
