<svg width="120" height="62" viewBox="0 0 120 62" fill="none" xmlns="http://www.w3.org/2000/svg">
<g clip-path="url(#clip0_369_3)">
<path d="M22.1078 48.48V57H19.7678V53.664H16.9118V57H14.5718V48.48H16.9118V51.624H19.7678V48.48H22.1078ZM27.4118 57.072C26.7638 57.072 26.1758 56.952 25.6478 56.712C25.1198 56.464 24.6638 56.136 24.2798 55.728C23.9038 55.312 23.6118 54.848 23.4038 54.336C23.2038 53.816 23.1038 53.28 23.1038 52.728C23.1038 52.16 23.2118 51.62 23.4278 51.108C23.6438 50.596 23.9438 50.14 24.3278 49.74C24.7198 49.332 25.1798 49.012 25.7078 48.78C26.2438 48.548 26.8278 48.432 27.4598 48.432C28.1078 48.432 28.6958 48.556 29.2238 48.804C29.7518 49.044 30.2038 49.372 30.5798 49.788C30.9558 50.204 31.2438 50.672 31.4438 51.192C31.6518 51.704 31.7558 52.232 31.7558 52.776C31.7558 53.336 31.6478 53.872 31.4318 54.384C31.2238 54.896 30.9238 55.356 30.5318 55.764C30.1478 56.164 29.6918 56.484 29.1638 56.724C28.6358 56.956 28.0518 57.072 27.4118 57.072ZM25.4798 52.752C25.4798 53.04 25.5198 53.32 25.5998 53.592C25.6798 53.856 25.7998 54.096 25.9598 54.312C26.1198 54.52 26.3198 54.688 26.5598 54.816C26.8078 54.936 27.0998 54.996 27.4358 54.996C27.7718 54.996 28.0638 54.932 28.3118 54.804C28.5598 54.676 28.7598 54.504 28.9118 54.288C29.0718 54.064 29.1878 53.82 29.2598 53.556C29.3398 53.284 29.3798 53.008 29.3798 52.728C29.3798 52.44 29.3398 52.164 29.2598 51.9C29.1798 51.636 29.0598 51.4 28.8998 51.192C28.7398 50.976 28.5358 50.808 28.2878 50.688C28.0398 50.568 27.7518 50.508 27.4238 50.508C27.0878 50.508 26.7958 50.572 26.5478 50.7C26.3078 50.828 26.1078 51 25.9478 51.216C25.7878 51.424 25.6678 51.664 25.5878 51.936C25.5158 52.2 25.4798 52.472 25.4798 52.752ZM39.1916 57V52.512L37.7636 55.668H36.5156L35.0876 52.512V57H32.7476V48.48H35.3036L37.1396 52.488L38.9876 48.48H41.5316V57H39.1916ZM49.0618 54.96V57H42.9898V48.48H48.9538V50.52H45.3298V51.72H48.4258V53.616H45.3298V54.96H49.0618ZM54.45 48.48H57.066L59.778 57H57.402L56.886 55.332H54.618L54.114 57H51.726L54.45 48.48ZM56.514 53.772L55.758 50.772L54.966 53.772H56.514ZM63.8778 57.072C63.1978 57.072 62.6138 56.96 62.1258 56.736C61.6378 56.512 61.2378 56.204 60.9258 55.812C60.6218 55.42 60.3978 54.972 60.2538 54.468C60.1098 53.956 60.0378 53.42 60.0378 52.86V48.48H62.3778V52.86C62.3778 53.14 62.4058 53.408 62.4618 53.664C62.5178 53.92 62.6058 54.148 62.7258 54.348C62.8458 54.548 62.9978 54.708 63.1818 54.828C63.3738 54.94 63.6058 54.996 63.8778 54.996C64.1578 54.996 64.3938 54.94 64.5858 54.828C64.7778 54.708 64.9298 54.548 65.0418 54.348C65.1618 54.14 65.2498 53.908 65.3058 53.652C65.3618 53.396 65.3898 53.132 65.3898 52.86V48.48H67.7298V52.86C67.7298 53.452 67.6498 54.004 67.4898 54.516C67.3378 55.028 67.1058 55.476 66.7938 55.86C66.4818 56.244 66.0818 56.544 65.5938 56.76C65.1138 56.968 64.5418 57.072 63.8778 57.072ZM68.6078 52.668C68.6078 52.148 68.7038 51.64 68.8958 51.144C69.0958 50.64 69.3838 50.184 69.7598 49.776C70.1358 49.368 70.5918 49.044 71.1278 48.804C71.6718 48.556 72.2838 48.432 72.9638 48.432C73.7798 48.432 74.4918 48.604 75.0998 48.948C75.7078 49.284 76.1598 49.732 76.4558 50.292L74.6678 51.564C74.5638 51.284 74.4118 51.068 74.2118 50.916C74.0198 50.764 73.8078 50.66 73.5758 50.604C73.3518 50.54 73.1318 50.508 72.9158 50.508C72.5798 50.508 72.2878 50.576 72.0398 50.712C71.7998 50.84 71.5998 51.012 71.4398 51.228C71.2878 51.444 71.1718 51.684 71.0918 51.948C71.0198 52.212 70.9838 52.476 70.9838 52.74C70.9838 53.036 71.0278 53.32 71.1158 53.592C71.2038 53.864 71.3318 54.108 71.4998 54.324C71.6678 54.532 71.8718 54.696 72.1118 54.816C72.3598 54.936 72.6358 54.996 72.9398 54.996C73.1558 54.996 73.3758 54.964 73.5998 54.9C73.8238 54.828 74.0278 54.716 74.2118 54.564C74.3958 54.412 74.5358 54.208 74.6318 53.952L76.5398 55.092C76.3718 55.508 76.0918 55.864 75.6998 56.16C75.3078 56.456 74.8638 56.684 74.3678 56.844C73.8718 56.996 73.3798 57.072 72.8918 57.072C72.2598 57.072 71.6798 56.948 71.1518 56.7C70.6318 56.444 70.1798 56.108 69.7958 55.692C69.4198 55.268 69.1278 54.796 68.9198 54.276C68.7118 53.748 68.6078 53.212 68.6078 52.668ZM84.0086 50.52H81.5606V57H79.2206V50.52H76.7606V48.48H84.0086V50.52ZM84.8609 57V48.48H87.2009V57H84.8609ZM92.5095 57.072C91.8615 57.072 91.2735 56.952 90.7455 56.712C90.2175 56.464 89.7615 56.136 89.3775 55.728C89.0015 55.312 88.7095 54.848 88.5015 54.336C88.3015 53.816 88.2015 53.28 88.2015 52.728C88.2015 52.16 88.3095 51.62 88.5255 51.108C88.7415 50.596 89.0415 50.14 89.4255 49.74C89.8175 49.332 90.2775 49.012 90.8055 48.78C91.3415 48.548 91.9255 48.432 92.5575 48.432C93.2055 48.432 93.7935 48.556 94.3215 48.804C94.8495 49.044 95.3015 49.372 95.6775 49.788C96.0535 50.204 96.3415 50.672 96.5415 51.192C96.7495 51.704 96.8535 52.232 96.8535 52.776C96.8535 53.336 96.7455 53.872 96.5295 54.384C96.3215 54.896 96.0215 55.356 95.6295 55.764C95.2455 56.164 94.7895 56.484 94.2615 56.724C93.7335 56.956 93.1495 57.072 92.5095 57.072ZM90.5775 52.752C90.5775 53.04 90.6175 53.32 90.6975 53.592C90.7775 53.856 90.8975 54.096 91.0575 54.312C91.2175 54.52 91.4175 54.688 91.6575 54.816C91.9055 54.936 92.1975 54.996 92.5335 54.996C92.8695 54.996 93.1615 54.932 93.4095 54.804C93.6575 54.676 93.8575 54.504 94.0095 54.288C94.1695 54.064 94.2855 53.82 94.3575 53.556C94.4375 53.284 94.4775 53.008 94.4775 52.728C94.4775 52.44 94.4375 52.164 94.3575 51.9C94.2775 51.636 94.1575 51.4 93.9975 51.192C93.8375 50.976 93.6335 50.808 93.3855 50.688C93.1375 50.568 92.8495 50.508 92.5215 50.508C92.1855 50.508 91.8935 50.572 91.6455 50.7C91.4055 50.828 91.2055 51 91.0455 51.216C90.8855 51.424 90.7655 51.664 90.6855 51.936C90.6135 52.2 90.5775 52.472 90.5775 52.752ZM100.185 52.812V57H97.8453V48.48H99.6693L103.089 52.812V48.48H105.429V57H103.569L100.185 52.812Z" fill="white"/>
<path d="M36 32L40.7376 25.4545L43.9862 32L60.9061 8L76.337 32L82.0221 25.4545L85 32" stroke="white" stroke-width="5"/>
</g>
<defs>
<clipPath id="clip0_369_3">
<rect width="120" height="62" fill="white"/>
</clipPath>
</defs>
</svg>
