<svg width="463" height="315" viewBox="0 0 463 315" fill="none" xmlns="http://www.w3.org/2000/svg">
<g clip-path="url(#clip0_248_1623)">
<path d="M155.716 171.96V189H151.036V182.328H145.324V189H140.644V171.96H145.324V178.248H151.036V171.96H155.716ZM166.324 189.144C165.028 189.144 163.852 188.904 162.796 188.424C161.74 187.928 160.828 187.272 160.06 186.456C159.308 185.624 158.724 184.696 158.308 183.672C157.908 182.632 157.708 181.56 157.708 180.456C157.708 179.32 157.924 178.24 158.356 177.216C158.788 176.192 159.388 175.28 160.156 174.48C160.94 173.664 161.86 173.024 162.916 172.56C163.988 172.096 165.156 171.864 166.42 171.864C167.716 171.864 168.892 172.112 169.948 172.608C171.004 173.088 171.908 173.744 172.66 174.576C173.412 175.408 173.988 176.344 174.388 177.384C174.804 178.408 175.012 179.464 175.012 180.552C175.012 181.672 174.796 182.744 174.364 183.768C173.948 184.792 173.348 185.712 172.564 186.528C171.796 187.328 170.884 187.968 169.828 188.448C168.772 188.912 167.604 189.144 166.324 189.144ZM162.46 180.504C162.46 181.08 162.54 181.64 162.7 182.184C162.86 182.712 163.1 183.192 163.42 183.624C163.74 184.04 164.14 184.376 164.62 184.632C165.116 184.872 165.7 184.992 166.372 184.992C167.044 184.992 167.628 184.864 168.124 184.608C168.62 184.352 169.02 184.008 169.324 183.576C169.644 183.128 169.876 182.64 170.02 182.112C170.18 181.568 170.26 181.016 170.26 180.456C170.26 179.88 170.18 179.328 170.02 178.8C169.86 178.272 169.62 177.8 169.3 177.384C168.98 176.952 168.572 176.616 168.076 176.376C167.58 176.136 167.004 176.016 166.348 176.016C165.676 176.016 165.092 176.144 164.596 176.4C164.116 176.656 163.716 177 163.396 177.432C163.076 177.848 162.836 178.328 162.676 178.872C162.532 179.4 162.46 179.944 162.46 180.504ZM189.883 189V180.024L187.027 186.336H184.531L181.675 180.024V189H176.995V171.96H182.107L185.779 179.976L189.475 171.96H194.563V189H189.883ZM209.624 184.92V189H197.48V171.96H209.408V176.04H202.16V178.44H208.352V182.232H202.16V184.92H209.624ZM220.4 171.96H225.632L231.056 189H226.304L225.272 185.664H220.736L219.728 189H214.952L220.4 171.96ZM224.528 182.544L223.016 176.544L221.432 182.544H224.528ZM239.256 189.144C237.896 189.144 236.728 188.92 235.752 188.472C234.776 188.024 233.976 187.408 233.352 186.624C232.744 185.84 232.296 184.944 232.008 183.936C231.72 182.912 231.576 181.84 231.576 180.72V171.96H236.256V180.72C236.256 181.28 236.312 181.816 236.424 182.328C236.536 182.84 236.712 183.296 236.952 183.696C237.192 184.096 237.496 184.416 237.864 184.656C238.248 184.88 238.712 184.992 239.256 184.992C239.816 184.992 240.288 184.88 240.672 184.656C241.056 184.416 241.36 184.096 241.584 183.696C241.824 183.28 242 182.816 242.112 182.304C242.224 181.792 242.28 181.264 242.28 180.72V171.96H246.96V180.72C246.96 181.904 246.8 183.008 246.48 184.032C246.176 185.056 245.712 185.952 245.088 186.72C244.464 187.488 243.664 188.088 242.688 188.52C241.728 188.936 240.584 189.144 239.256 189.144ZM248.716 180.336C248.716 179.296 248.908 178.28 249.292 177.288C249.692 176.28 250.268 175.368 251.02 174.552C251.772 173.736 252.684 173.088 253.756 172.608C254.844 172.112 256.068 171.864 257.428 171.864C259.06 171.864 260.484 172.208 261.7 172.896C262.916 173.568 263.82 174.464 264.412 175.584L260.836 178.128C260.628 177.568 260.324 177.136 259.924 176.832C259.54 176.528 259.116 176.32 258.652 176.208C258.204 176.08 257.764 176.016 257.332 176.016C256.66 176.016 256.076 176.152 255.58 176.424C255.1 176.68 254.7 177.024 254.38 177.456C254.076 177.888 253.844 178.368 253.684 178.896C253.54 179.424 253.468 179.952 253.468 180.48C253.468 181.072 253.556 181.64 253.732 182.184C253.908 182.728 254.164 183.216 254.5 183.648C254.836 184.064 255.244 184.392 255.724 184.632C256.22 184.872 256.772 184.992 257.38 184.992C257.812 184.992 258.252 184.928 258.7 184.8C259.148 184.656 259.556 184.432 259.924 184.128C260.292 183.824 260.572 183.416 260.764 182.904L264.58 185.184C264.244 186.016 263.684 186.728 262.9 187.32C262.116 187.912 261.228 188.368 260.236 188.688C259.244 188.992 258.26 189.144 257.284 189.144C256.02 189.144 254.86 188.896 253.804 188.4C252.764 187.888 251.86 187.216 251.092 186.384C250.34 185.536 249.756 184.592 249.34 183.552C248.924 182.496 248.716 181.424 248.716 180.336ZM279.517 176.04H274.621V189H269.941V176.04H265.021V171.96H279.517V176.04ZM281.222 189V171.96H285.902V189H281.222ZM296.519 189.144C295.223 189.144 294.047 188.904 292.991 188.424C291.935 187.928 291.023 187.272 290.255 186.456C289.503 185.624 288.919 184.696 288.503 183.672C288.103 182.632 287.903 181.56 287.903 180.456C287.903 179.32 288.119 178.24 288.551 177.216C288.983 176.192 289.583 175.28 290.351 174.48C291.135 173.664 292.055 173.024 293.111 172.56C294.183 172.096 295.351 171.864 296.615 171.864C297.911 171.864 299.087 172.112 300.143 172.608C301.199 173.088 302.103 173.744 302.855 174.576C303.607 175.408 304.183 176.344 304.583 177.384C304.999 178.408 305.207 179.464 305.207 180.552C305.207 181.672 304.991 182.744 304.559 183.768C304.143 184.792 303.543 185.712 302.759 186.528C301.991 187.328 301.079 187.968 300.023 188.448C298.967 188.912 297.799 189.144 296.519 189.144ZM292.655 180.504C292.655 181.08 292.735 181.64 292.895 182.184C293.055 182.712 293.295 183.192 293.615 183.624C293.935 184.04 294.335 184.376 294.815 184.632C295.311 184.872 295.895 184.992 296.567 184.992C297.239 184.992 297.823 184.864 298.319 184.608C298.815 184.352 299.215 184.008 299.519 183.576C299.839 183.128 300.071 182.64 300.215 182.112C300.375 181.568 300.455 181.016 300.455 180.456C300.455 179.88 300.375 179.328 300.215 178.8C300.055 178.272 299.815 177.8 299.495 177.384C299.175 176.952 298.767 176.616 298.271 176.376C297.775 176.136 297.199 176.016 296.543 176.016C295.871 176.016 295.287 176.144 294.791 176.4C294.311 176.656 293.911 177 293.591 177.432C293.271 177.848 293.031 178.328 292.871 178.872C292.727 179.4 292.655 179.944 292.655 180.504ZM311.871 180.624V189H307.191V171.96H310.839L317.679 180.624V171.96H322.359V189H318.639L311.871 180.624Z" fill="white"/>
<path d="M186 158L194.798 145.727L200.831 158L232.254 113L260.912 158L271.47 145.727L277 158" stroke="white" stroke-width="7"/>
</g>
<defs>
<clipPath id="clip0_248_1623">
<rect width="463" height="315" fill="white"/>
</clipPath>
</defs>
</svg>
